<?xml version="1.0" encoding="UTF-8" standalone="no"?>
<svg width="504px" height="503px" viewBox="0 0 504 503" version="1.1" xmlns="http://www.w3.org/2000/svg" xmlns:xlink="http://www.w3.org/1999/xlink">
    <!-- Generator: Sketch 39.1 (31720) - http://www.bohemiancoding.com/sketch -->
    <title>1471857874_r2d2</title>
    <desc>Created with Sketch.</desc>
    <defs></defs>
    <g id="Page-1" stroke="none" stroke-width="1" fill="none" fill-rule="evenodd">
        <g id="1471857874_r2d2" fill="#FFFFFF">
            <path d="M467.213,413.183 L467.213,197.845 C467.213,178.031 451.138,161.955 431.323,161.955 L395.433,161.955 L395.433,197.845 L395.433,233.735 L395.433,413.183 L359.543,502.908 L503.102,502.908 L467.213,413.183 L467.213,413.183 Z" id="Shape"></path>
            <path d="M108.316,233.734 L108.316,197.844 L108.316,161.954 L72.426,161.954 C52.606,161.954 36.536,178.018 36.536,197.844 L36.536,413.182 L0.646,502.907 L144.205,502.907 L108.315,413.182 L108.315,233.734 L108.316,233.734 Z" id="Shape"></path>
            <path d="M376.893,144.01 L377.489,144.01 L377.489,126.042 C377.489,56.693 321.236,0.452 251.876,0.452 C182.515,0.452 126.262,56.693 126.262,126.042 L126.262,144.01 L126.858,144.01 L376.893,144.01 L376.893,144.01 Z M323.654,90.176 C333.573,90.176 341.598,98.226 341.598,108.121 C341.598,118.028 333.573,126.066 323.654,126.066 C313.735,126.066 305.709,118.028 305.709,108.121 C305.709,98.226 313.735,90.176 323.654,90.176 L323.654,90.176 Z M251.875,27.369 C271.665,27.369 287.765,43.468 287.765,63.259 C287.765,83.061 271.665,99.149 251.875,99.149 C232.037,99.149 215.985,83.062 215.985,63.259 C215.985,43.468 232.037,27.369 251.875,27.369 L251.875,27.369 Z" id="Shape"></path>
            <path d="M377.488,161.955 L126.261,161.955 L126.261,413.183 L162.151,449.073 L341.599,449.073 L377.489,413.183 L377.489,161.955 L377.488,161.955 Z M305.709,305.514 L198.04,305.514 C188.122,305.514 180.095,297.489 180.095,287.57 C180.095,277.651 188.121,269.625 198.04,269.625 L305.709,269.625 C315.628,269.625 323.654,277.651 323.654,287.57 C323.654,297.489 315.628,305.514 305.709,305.514 L305.709,305.514 Z M305.709,233.734 L198.04,233.734 C188.122,233.734 180.095,225.696 180.095,215.789 C180.095,205.882 188.121,197.844 198.04,197.844 L305.709,197.844 C315.628,197.844 323.654,205.882 323.654,215.789 C323.654,225.697 315.628,233.734 305.709,233.734 L305.709,233.734 Z" id="Shape"></path>
        </g>
    </g>
</svg>