<?xml version="1.0" encoding="UTF-8" standalone="no"?>
<svg width="498px" height="498px" viewBox="0 0 498 498" version="1.1" xmlns="http://www.w3.org/2000/svg" xmlns:xlink="http://www.w3.org/1999/xlink">
    <!-- Generator: Sketch 39.1 (31720) - http://www.bohemiancoding.com/sketch -->
    <title>icon-x</title>
    <desc>Created with Sketch.</desc>
    <defs></defs>
    <g id="Page-1" stroke="none" stroke-width="1" fill="none" fill-rule="evenodd">
        <g id="icon-x" fill="#FFFFFF">
            <path d="M249,0 C111.467,0 0,111.468 0,249.002 C0,386.533 111.467,498 249,498 C386.533,498 498,386.533 498,249.002 C498,111.468 386.533,0 249,0 L249,0 Z M249,478.08 C122.69,478.08 19.92,375.309 19.92,249.002 C19.92,122.692 122.69,19.92 249,19.92 C375.309,19.92 478.08,122.691 478.08,249.002 C478.08,375.309 375.309,478.08 249,478.08 L249,478.08 Z" id="Shape"></path>
            <polygon id="Shape" points="361.545 150.073 347.461 135.988 248.863 234.587 150.733 136.456 136.648 150.54 234.78 248.672 136.648 346.809 150.733 360.893 248.863 262.75 347.461 361.361 361.545 347.275 262.947 248.672"></polygon>
        </g>
    </g>
</svg>